<svg width="1200" height="520" viewBox="0 0 1200 520" fill="none" xmlns="http://www.w3.org/2000/svg">
  <rect width="1200" height="520" rx="30" fill="#f7fbff"/>
  <text x="60" y="70" font-family="Microsoft YaHei UI, Segoe UI, sans-serif" font-size="34" font-weight="800" fill="#122033">项目架构</text>
  <text x="60" y="105" font-family="Microsoft YaHei UI, Segoe UI, sans-serif" font-size="18" fill="#64748b">CMake + Qt Widgets + Qt Multimedia + SQLite</text>
  <defs>
    <marker id="arrow" markerWidth="10" markerHeight="10" refX="8" refY="3" orient="auto" markerUnits="strokeWidth">
      <path d="M0,0 L0,6 L9,3 z" fill="#0f766e"/>
    </marker>
  </defs>
  <g font-family="Microsoft YaHei UI, Segoe UI, sans-serif">
    <rect x="70" y="170" width="190" height="110" rx="22" fill="#ffffff" stroke="#c9d8e8" stroke-width="2"/>
    <text x="110" y="215" font-size="23" font-weight="800" fill="#111827">本地文件夹</text>
    <text x="104" y="248" font-size="15" fill="#64748b">mp3 / flac / wav</text>
    <text x="116" y="270" font-size="15" fill="#64748b">mp4 / mkv / avi</text>

    <rect x="320" y="170" width="190" height="110" rx="22" fill="#ffffff" stroke="#c9d8e8" stroke-width="2"/>
    <text x="364" y="215" font-size="23" font-weight="800" fill="#111827">LocalProvider</text>
    <text x="365" y="248" font-size="15" fill="#64748b">扫描与元数据</text>
    <text x="374" y="270" font-size="15" fill="#64748b">文件路径管理</text>

    <rect x="570" y="170" width="190" height="110" rx="22" fill="#ffffff" stroke="#c9d8e8" stroke-width="2"/>
    <text x="606" y="215" font-size="23" font-weight="800" fill="#111827">MusicLibrary</text>
    <text x="614" y="248" font-size="15" fill="#64748b">SQLite 持久化</text>
    <text x="618" y="270" font-size="15" fill="#64748b">文件夹 / 队列</text>

    <rect x="820" y="170" width="190" height="110" rx="22" fill="#ffffff" stroke="#c9d8e8" stroke-width="2"/>
    <text x="846" y="215" font-size="23" font-weight="800" fill="#111827">PlaybackCore</text>
    <text x="858" y="248" font-size="15" fill="#64748b">QMediaPlayer</text>
    <text x="850" y="270" font-size="15" fill="#64748b">QAudioOutput</text>

    <rect x="695" y="345" width="190" height="110" rx="22" fill="#ffffff" stroke="#c9d8e8" stroke-width="2"/>
    <text x="734" y="390" font-size="23" font-weight="800" fill="#111827">MainWindow</text>
    <text x="740" y="423" font-size="15" fill="#64748b">列表 / 封面 / 歌词</text>
    <text x="742" y="445" font-size="15" fill="#64748b">视频窗口 / 主题</text>

    <path d="M260 225 H315" stroke="#0f766e" stroke-width="4" marker-end="url(#arrow)"/>
    <path d="M510 225 H565" stroke="#0f766e" stroke-width="4" marker-end="url(#arrow)"/>
    <path d="M760 225 H815" stroke="#0f766e" stroke-width="4" marker-end="url(#arrow)"/>
    <path d="M915 280 C915 332 860 350 790 345" stroke="#0f766e" stroke-width="4" fill="none" marker-end="url(#arrow)"/>
    <path d="M665 280 C665 330 700 350 725 358" stroke="#0f766e" stroke-width="4" fill="none" marker-end="url(#arrow)"/>
  </g>
</svg>
