<svg width="1200" height="520" viewBox="0 0 1200 520" fill="none" xmlns="http://www.w3.org/2000/svg">
  <rect width="1200" height="520" rx="32" fill="#0b1018"/>
  <text x="60" y="72" font-family="Microsoft YaHei UI, Segoe UI, sans-serif" font-size="34" font-weight="800" fill="#f8fafc">功能亮点</text>
  <text x="60" y="108" font-family="Microsoft YaHei UI, Segoe UI, sans-serif" font-size="18" fill="#90a0b7">本地媒体库、播放控制、歌词封面、视频播放与 Windows 发布</text>
  <g font-family="Microsoft YaHei UI, Segoe UI, sans-serif">
    <rect x="60" y="150" width="250" height="250" rx="28" fill="#131b27" stroke="#31506a"/>
    <circle cx="108" cy="204" r="26" fill="#1d5b62"/><text x="94" y="213" font-size="26" fill="#5eead4">1</text>
    <text x="88" y="264" font-size="24" font-weight="800" fill="#f8fafc">本地媒体库</text>
    <text x="88" y="306" font-size="16" fill="#90a0b7">扫描文件夹</text>
    <text x="88" y="334" font-size="16" fill="#90a0b7">列表 / 图标视图</text>
    <text x="88" y="362" font-size="16" fill="#90a0b7">按目录过滤查看</text>

    <rect x="345" y="150" width="250" height="250" rx="28" fill="#131b27" stroke="#31506a"/>
    <circle cx="393" cy="204" r="26" fill="#1d5b62"/><text x="379" y="213" font-size="26" fill="#5eead4">2</text>
    <text x="373" y="264" font-size="24" font-weight="800" fill="#f8fafc">播放控制</text>
    <text x="373" y="306" font-size="16" fill="#90a0b7">播放 / 暂停 / 切歌</text>
    <text x="373" y="334" font-size="16" fill="#90a0b7">进度 / 音量 / 模式</text>
    <text x="373" y="362" font-size="16" fill="#90a0b7">快捷键控制</text>

    <rect x="630" y="150" width="250" height="250" rx="28" fill="#131b27" stroke="#31506a"/>
    <circle cx="678" cy="204" r="26" fill="#1d5b62"/><text x="664" y="213" font-size="26" fill="#5eead4">3</text>
    <text x="658" y="264" font-size="24" font-weight="800" fill="#f8fafc">封面与歌词</text>
    <text x="658" y="306" font-size="16" fill="#90a0b7">读取音频封面</text>
    <text x="658" y="334" font-size="16" fill="#90a0b7">同名 .lrc 歌词</text>
    <text x="658" y="362" font-size="16" fill="#90a0b7">随播放自动滚动</text>

    <rect x="915" y="150" width="250" height="250" rx="28" fill="#131b27" stroke="#31506a"/>
    <circle cx="963" cy="204" r="26" fill="#1d5b62"/><text x="949" y="213" font-size="26" fill="#5eead4">4</text>
    <text x="943" y="264" font-size="24" font-weight="800" fill="#f8fafc">视频与发布</text>
    <text x="943" y="306" font-size="16" fill="#90a0b7">视频播放 / 全屏</text>
    <text x="943" y="334" font-size="16" fill="#90a0b7">仅音频模式</text>
    <text x="943" y="362" font-size="16" fill="#90a0b7">windeployqt 打包</text>
  </g>
</svg>
